<svg xmlns="http://www.w3.org/2000/svg"
shape-rendering="geometricPrecision"
width="4000" height="4000" viewBox="0 0 1024 1024"><rect width="100%" height="100%" fill="#FFFFFF" />
  <metadata>null</metadata>

<path d="
M 110.328 614.365
C 120.712 614.103 131.117 614.259 141.507 614.256
C 153.061 614.253 164.073 614.089 174.442 619.941
C 195.728 631.955 195.41 666.364 174.733 678.749
C 170.178 681.477 165.143 683.313 159.874 684.023
C 150.37 685.303 140.695 683.674 131.212 684.772
C 130.301 687.491 130.919 691.154 130.911 694.011
C 130.894 700.196 130.188 706.827 130.933 712.964
C 130.756 713.249 130.089 713.134 129.798 713.136
C 128.533 713.143 127.269 713.156 126.004 713.15
C 120.767 713.123 115.432 713.465 110.21 713.215
C 109.988 692.484 110.209 671.738 110.204 651.003
C 110.201 638.852 109.492 626.49 110.328 614.365 Z
M 131.178 633.129
C 131.236 641.075 131.079 649.045 131.12 656.999
C 131.131 659.162 131.148 661.325 131.137 663.488
C 131.134 664.276 130.931 665.333 131.35 665.998
C 141.482 664.896 153.702 668.745 162.743 662.786
C 171.863 656.776 171.201 641.011 161.802 635.629
C 156.681 632.697 150.703 632.931 144.991 632.945
C 140.397 632.957 135.757 632.731 131.178 633.129 Z"
opacity="1" fill="rgb(61,61,60)" fill-rule="evenodd" />
<path d="
M 199.971 710.119
C 200.349 706.644 200.039 702.983 200.039 699.488
C 200.039 692.822 200.043 686.157 200.057 679.491
C 200.077 670.661 200.106 661.832 200.101 653.003
C 200.099 648.633 200.354 644.188 200.036 639.833
C 201.737 639.047 204.254 639.546 206.096 639.525
C 210.659 639.474 215.202 639.53 219.764 639.648
C 220.144 643.669 220.034 647.929 220.013 651.971
C 220.736 651.634 221.268 650.028 221.753 649.365
C 223.067 647.57 224.617 645.855 226.257 644.352
C 231.708 639.36 238.19 637.834 245.403 637.958
C 245.324 642.624 245.184 647.316 245.152 651.997
C 245.139 653.803 244.641 656.447 245.115 658.156
C 244.139 657.353 240.961 657.592 239.72 657.564
C 233.585 657.428 227.54 659.95 224.099 665.184
C 219.954 671.488 220.156 678.234 220.145 685.499
C 220.132 694.717 220.427 703.984 220.108 713.192
C 217.991 712.897 215.64 713.181 213.498 713.177
C 209.021 713.169 204.543 713.158 200.068 713.214
C 199.953 712.171 199.913 711.168 199.971 710.119 Z"
opacity="1" fill="rgb(61,61,61)" fill-rule="evenodd" />
<path d="
M 252.45 616.594
C 254.116 604.033 273.755 602.392 276.776 614.975
C 277.162 616.587 277.312 618.3 277.094 619.946
C 276.877 621.582 276.253 623.038 275.383 624.429
C 268.757 635.018 250.742 629.472 252.45 616.594 Z"
opacity="1" fill="rgb(59,59,59)" fill-rule="evenodd" />
<path d="
M 254.785 639.754
C 261.095 638.815 268.333 639.225 274.7 639.596
C 275.161 641.932 274.797 644.615 274.79 646.996
C 274.777 651.83 274.789 656.664 274.783 661.498
C 274.76 678.654 273.939 696.046 274.827 713.179
C 268.19 712.986 261.507 713.494 254.873 713.154
C 254.551 710.337 254.804 707.338 254.808 704.502
C 254.815 699.002 254.812 693.502 254.811 688.002
C 254.807 671.921 254.715 655.835 254.785 639.754 Z"
opacity="1" fill="rgb(61,61,61)" fill-rule="evenodd" />
<path d="
M 289.807 639.728
C 292.26 639.353 294.848 639.576 297.328 639.554
C 301.437 639.516 305.582 639.382 309.68 639.591
C 309.579 642.767 309.641 645.954 309.49 649.132
C 309.412 649.765 310.729 647.766 310.865 647.551
C 311.625 646.348 312.648 645.294 313.672 644.309
C 316.815 641.288 320.564 639.265 324.804 638.239
C 336.979 635.294 349.237 640.676 354.592 651.972
C 355.765 650.906 356.555 649.164 357.617 647.938
C 360.413 644.709 363.709 641.969 367.598 640.145
C 371.815 638.168 376.621 637.263 381.27 637.634
C 384.124 637.862 386.859 638.327 389.544 639.357
C 391.645 640.164 393.657 641.39 395.499 642.672
C 408.075 651.426 406.099 668.671 406.148 681.998
C 406.169 687.665 406.193 693.332 406.208 698.999
C 406.217 702.167 406.234 705.334 406.236 708.502
C 406.237 709.896 405.921 711.779 406.285 713.115
C 401.707 712.973 397.085 713.155 392.501 713.161
C 390.862 713.163 387.952 713.69 386.486 713.018
C 385.749 701.259 386.405 689.281 386.404 677.497
C 386.404 671.795 387.151 665.14 383.114 660.5
C 376.027 652.355 363.419 656.131 359.281 665.113
C 357.524 668.928 357.923 673.668 357.928 677.777
C 357.937 685.352 358.039 692.926 358.075 700.498
C 358.089 703.499 358.081 706.503 358.135 709.503
C 358.153 710.52 357.88 712.226 358.239 713.136
C 351.633 712.682 344.886 713.275 338.259 713.125
C 337.71 701.818 338.28 690.327 338.362 679.001
C 338.403 673.232 339.266 666.733 335.971 661.64
C 330.049 652.484 315.488 654.824 311.429 664.527
C 308.948 670.459 309.834 677.707 309.847 684.001
C 309.86 690.5 309.817 696.999 309.822 703.498
C 309.824 706.603 309.483 709.965 309.919 713.038
C 309.782 713.266 309.101 713.163 308.872 713.159
C 307.585 713.134 306.297 713.119 305.01 713.095
C 299.972 713.001 294.892 713.37 289.864 713.15
C 289.303 688.698 289.961 664.188 289.807 639.728 Z"
opacity="1" fill="rgb(60,60,60)" fill-rule="evenodd" />
<path d="
M 364.964 314.114
C 365.084 313.499 365.052 313.861 364.967 313.023
C 366.743 312.613 368.697 312.856 370.51 312.861
C 373.842 312.87 377.175 312.854 380.507 312.848
C 391.508 312.826 402.507 312.793 413.507 312.84
C 432.989 312.924 452.475 312.834 471.951 313.074
C 479.286 313.165 486.693 312.713 494.002 313.513
C 508.223 315.07 523.092 319.712 534.854 328.044
C 550.237 338.941 562.13 355.219 566.601 373.652
C 575.638 410.912 556.286 452.023 520.845 467.557
C 510.801 471.96 500.128 474.91 489.164 475.771
C 476.196 476.79 463.006 475.997 450.004 476.102
C 445.845 476.135 441.392 475.734 437.268 476.222
C 436.24 460.964 438.012 445.54 437.229 430.274
C 448.947 430.652 460.778 430.246 472.508 430.195
C 483.103 430.148 493.606 430.631 503.259 425.535
C 509.218 422.39 514.679 417.326 517.71 411.26
C 525.781 395.108 521.198 373.958 505.464 364.369
C 494.884 357.921 482.353 358.8 470.498 358.774
C 457.498 358.745 444.498 358.734 431.498 358.744
C 425.675 358.748 419.661 358.245 413.863 358.65
C 414.489 373.214 413.76 387.921 413.803 402.5
C 413.903 436.833 413.856 471.168 413.823 505.501
C 413.809 519.168 413.778 532.834 413.798 546.501
C 413.805 550.835 413.74 555.168 413.742 559.502
C 413.743 561.526 413.504 563.813 413.817 565.804
C 409.257 565.46 404.572 565.773 399.999 565.761
C 388.261 565.733 376.479 566.02 364.748 565.631
C 365.583 508.118 364.865 450.527 364.823 393.003
C 364.809 374.669 364.733 356.333 364.863 337.999
C 364.919 330.077 364.418 322.017 364.964 314.114 Z"
opacity="1" fill="rgb(243,58,48)" fill-rule="evenodd" />
<path d="
M 416.445 671.095
C 418.453 660.823 422.189 651.928 430.647 645.228
C 444.539 634.224 465.884 635.684 478.153 648.255
C 484.341 654.597 487.896 663.782 488.659 672.531
C 488.956 675.938 488.523 679.355 488.693 682.738
C 484.607 683.266 480.122 682.725 475.998 682.718
C 467.501 682.703 459.004 682.751 450.508 682.645
C 445.753 682.586 440.435 682.015 435.764 682.992
C 436.317 685.149 436.667 687.05 437.818 689.019
C 443.092 698.038 454.217 700.008 463.612 696.908
C 465.894 696.156 468.056 695.165 470.057 693.828
C 471.308 692.993 472.623 691.658 474.029 691.169
C 477.455 694.891 481.496 697.892 485.081 701.424
C 484.192 703.366 481.69 704.821 480.035 706.08
C 473.624 710.957 466.529 713.692 458.496 714.391
C 453.186 714.854 447.79 714.632 442.648 713.066
C 424.612 707.573 413.751 689.641 416.445 671.095 Z
M 435.395 668.567
C 435.314 669.078 435.209 669.584 435.12 670.093
C 446.733 669.99 458.381 669.858 469.991 669.928
C 468.547 657.722 454.792 650.168 443.902 656.251
C 439.121 658.922 436.882 663.579 435.395 668.567 Z"
opacity="1" fill="rgb(60,60,60)" fill-rule="evenodd" />
<path d="
M 486.978 543.623
C 487.652 538.045 487.073 532.123 487.099 526.507
C 487.135 518.809 487.638 510.922 487.215 503.244
C 498.304 502.808 509.012 501.201 519.63 497.904
C 523.051 496.841 526.463 495.51 529.726 494.031
C 531.203 493.361 533.384 491.827 535.024 491.852
C 535.322 492.966 534.993 494.222 534.97 495.367
C 534.923 497.688 534.952 500.012 534.925 502.334
C 534.854 508.423 535.511 514.591 535.122 520.664
C 558.362 519.882 581.756 520.627 605.014 520.661
C 617.846 520.68 630.679 520.657 643.512 520.704
C 648.871 520.724 654.28 520.445 659.632 520.692
C 659.431 530.456 659.74 540.223 659.562 549.994
C 659.469 555.058 658.699 560.723 659.327 565.737
C 635.395 566.082 611.434 565.783 587.499 565.736
C 554.019 565.671 520.536 565.797 487.057 565.722
C 486.741 558.497 486.591 550.849 486.978 543.623 Z"
opacity="1" fill="rgb(222,32,28)" fill-rule="evenodd" />
<path d="
M 499.352 611.298
C 504.235 611.158 509.121 611.183 514.007 611.146
C 515.288 611.136 518.196 610.528 519.193 611.247
C 518.787 618.451 519.108 625.775 519.112 633
C 519.118 646.552 519.142 660.112 519.066 673.656
C 519.017 682.433 519.06 691.215 519.092 699.999
C 519.108 704.241 518.529 709.011 519.172 713.192
C 517.803 712.869 515.93 713.208 514.5 713.204
C 511.165 713.196 507.83 713.215 504.496 713.215
C 502.954 713.215 500.629 713.713 499.22 713.124
C 499.399 691.088 499.224 669.042 499.235 647.005
C 499.241 635.128 499.71 623.164 499.352 611.298 Z"
opacity="1" fill="rgb(61,61,62)" fill-rule="evenodd" />
<path d="
M 529.469 675.109
C 530.533 666.755 532.281 658.909 537.442 651.996
C 547.209 638.913 565.809 634.121 580.744 640.841
C 585.659 643.052 589.698 646.407 593.157 650.517
C 600.428 659.154 602.708 671.852 601.857 682.834
C 588.602 682.351 575.269 682.658 562.003 682.603
C 558.767 682.589 555.531 682.619 552.295 682.609
C 551.377 682.606 549.307 682.355 548.78 683.105
C 549.244 685.205 549.77 687.04 550.854 688.931
C 556.012 697.929 567.214 699.984 576.534 697.045
C 579.092 696.238 581.553 694.995 583.818 693.566
C 585.038 692.797 586.092 691.622 587.488 691.202
C 589.926 694.119 592.551 696.729 595.371 699.287
C 595.927 699.791 598.208 701.343 597.956 701.998
C 597.083 703.857 594.108 705.404 592.477 706.573
C 586.774 710.663 580.516 713.525 573.477 714.329
C 558.677 716.021 543.236 710.442 535.158 697.352
C 532.971 693.807 531.441 689.883 530.477 685.837
C 529.655 682.388 529.227 678.655 529.469 675.109 Z
M 548.447 668.59
C 548.355 669.147 548.044 669.607 548.572 669.94
C 552.939 669.471 557.605 669.912 562.004 669.917
C 568.979 669.924 575.997 669.704 582.965 669.938
C 581.644 664.977 579.91 659.912 575.437 656.876
C 569.061 652.549 559.366 653.438 553.799 658.634
C 550.913 661.328 549.33 664.821 548.447 668.59 Z"
opacity="1" fill="rgb(60,60,60)" fill-rule="evenodd" />
<path d="
M 536.835 490.52
C 543.817 486.073 551.039 482.218 557.615 477.058
C 567.774 469.085 576.774 458.372 583.231 447.221
C 603.889 411.55 602.119 365.341 577.393 332.235
C 572.32 325.442 566.358 318.28 559.456 313.268
C 560.581 312.373 563.098 312.836 564.508 312.806
C 569.339 312.705 574.178 312.699 579.009 312.754
C 586.017 312.832 593.446 312.159 600.325 313.749
C 615.649 317.29 626.064 330.727 632.489 344.277
C 638.083 356.075 640.707 369.167 641.418 382.124
C 643.194 414.491 633.228 450.033 607.147 471.16
C 594.926 481.059 580.507 486.766 565.056 489.132
C 558.118 490.194 551.212 490.241 544.197 490.191
C 541.905 490.174 539.01 491.041 536.835 490.52 Z"
opacity="1" fill="rgb(246,62,51)" fill-rule="evenodd" />
<path d="
M 608.944 671.603
C 610.326 663.574 612.383 656.441 617.553 649.939
C 626.565 638.605 643.902 633.864 656.951 640.9
C 661.068 643.119 663.172 646.231 666.128 649.599
C 666.93 644.992 666.262 639.688 666.273 635.004
C 666.291 627.149 666.722 619.205 666.395 611.361
C 668.536 610.805 671.048 611.163 673.25 611.145
C 677.611 611.108 681.991 610.997 686.35 611.134
C 686.032 613.499 686.33 616.109 686.337 618.501
C 686.352 623.335 686.354 628.168 686.325 633.002
C 686.226 649.5 686.292 666 686.302 682.498
C 686.306 689.666 686.279 696.833 686.287 704.001
C 686.289 706.25 686.237 708.504 686.271 710.753
C 686.282 711.437 686.009 712.583 686.222 713.214
C 681.688 712.948 677.044 713.19 672.499 713.192
C 670.7 713.193 668.055 713.677 666.38 713.06
C 666.322 709.755 666.481 706.375 666.226 703.083
C 664.563 704.326 663.47 706.332 661.92 707.745
C 658.048 711.277 653.55 713.594 648.37 714.506
C 635.177 716.828 621.158 709.226 614.394 697.961
C 609.769 690.258 607.92 680.482 608.944 671.603 Z
M 628.945 671.095
C 627.434 679.494 629.855 689.247 637.213 694.25
C 648.697 702.059 664.326 695.128 666.844 681.7
C 668.521 672.761 665.999 663.596 658.342 658.176
C 646.923 650.093 631.304 657.987 628.945 671.095 Z"
opacity="1" fill="rgb(61,61,61)" fill-rule="evenodd" />
<path d="
M 696.418 669.096
C 697.931 661.552 700.494 655.095 705.521 649.141
C 714.248 638.805 729.545 634.787 742.099 639.999
C 746.765 641.936 749.702 645.014 753.21 648.489
C 753.451 648.381 753.293 646.811 753.291 646.507
C 753.271 644.267 753.279 642.025 753.253 639.785
C 757.835 639.69 762.42 639.747 767.003 639.641
C 768.847 639.599 771.495 639.072 773.227 639.683
C 772.857 645.159 773.181 650.753 773.141 656.245
C 773.041 669.783 773.257 683.328 773.18 696.876
C 773.1 710.885 772.155 725.136 760.146 734.395
C 757.887 736.136 755.466 737.554 752.835 738.662
C 749.266 740.165 745.546 741.009 741.725 741.549
C 735.782 742.389 729.884 742.126 723.96 741.306
C 719.012 740.621 713.767 739.277 709.232 737.141
C 705.849 735.547 702.654 733.428 699.205 732.002
C 699.265 730.807 701.443 728.866 702.161 727.827
C 704.482 724.467 706.899 720.883 708.38 717.056
C 711.188 718.792 713.729 720.586 716.781 721.952
C 727.011 726.531 744.139 728.562 750.741 717.252
C 751.624 715.74 752.185 714.037 752.594 712.341
C 753.465 708.736 753.444 704.751 753.199 701.072
C 751.493 702.05 750.216 704.388 748.652 705.694
C 744.537 709.13 739.205 711.056 733.934 711.745
C 730.522 712.192 727.084 712.121 723.706 711.462
C 704.146 707.648 693.471 688.083 696.418 669.096 Z
M 715.922 672.117
C 715.359 678.633 716.932 686.13 722.128 690.543
C 729.575 696.866 742.002 695.764 748.612 688.719
C 751.762 685.362 753.265 681.171 753.612 676.644
C 754.061 670.788 753.016 664.721 748.796 660.347
C 741.284 652.559 727.821 652.939 720.567 660.81
C 717.765 663.85 716.272 668.055 715.922 672.117 Z"
opacity="1" fill="rgb(60,60,60)" fill-rule="evenodd" />
<path d="
M 782.456 676.097
C 782.732 674.988 782.918 673.845 783.064 672.713
C 783.692 671.875 785.243 671.58 786.243 671.354
C 789.27 670.671 792.518 670.741 795.6 670.497
C 808.481 669.479 821.388 670.215 834.275 669.801
C 832.595 658.448 822.002 651.399 810.949 654.801
C 806.942 656.034 804.219 658.963 800.793 661.145
C 799.508 661.575 798.072 661.146 796.8 660.827
C 793.435 659.98 790.247 658 786.84 657.434
C 786.899 655.717 788.647 653.156 789.517 651.657
C 793.983 643.961 802.744 639.934 811.243 638.576
C 815.968 637.821 820.747 637.65 825.467 638.553
C 840.551 641.441 850.2 653.877 852.825 668.544
C 853.418 671.86 853.707 675.2 853.76 678.566
C 853.779 679.78 854.008 681.422 853.545 682.569
C 845.617 683.147 837.511 682.457 829.568 682.472
C 819.983 682.488 810.285 683.048 800.714 682.69
C 801.164 685.267 801.829 687.618 803.311 689.823
C 809.471 698.989 820.922 699.785 830.53 695.828
C 833.488 694.61 835.718 692.438 838.505 691.062
C 841.202 693.781 844.1 696.349 847.064 698.773
C 847.598 699.21 850.037 700.714 849.854 701.35
C 848.775 702.941 846.976 704.254 845.495 705.461
C 841.587 708.647 837.331 710.912 832.535 712.432
C 817.119 717.318 797.998 713.369 788.384 699.46
C 786.218 696.325 784.722 692.797 783.585 689.18
C 782.276 685.015 781.733 680.436 782.456 676.097 Z"
opacity="1" fill="rgb(60,60,60)" fill-rule="evenodd" />
<path d="
M 863.475 676.618
C 864.102 671.886 863.602 666.775 863.595 662.004
C 863.584 654.571 863.854 647.089 863.591 639.663
C 870.32 639.141 877.147 639.805 883.886 639.649
C 883.385 643.6 883.68 647.822 883.765 651.797
C 884.196 651.997 884.669 650.817 884.822 650.556
C 885.763 648.951 886.937 647.491 888.205 646.129
C 892.511 641.501 898.205 638.364 904.553 637.886
C 905.816 637.791 907.095 637.757 908.362 637.758
C 908.743 637.758 909.671 637.664 909.9 637.974
C 909.708 642.14 909.744 646.33 909.72 650.499
C 909.707 652.727 909.456 655.179 909.777 657.376
C 906.997 656.888 904.12 656.934 901.322 657.245
C 899.266 657.474 897.215 658.095 895.34 658.957
C 880.425 665.818 883.692 684.142 883.652 697.5
C 883.637 702.578 882.967 707.956 883.486 712.998
C 882.753 713.73 879.56 713.17 878.503 713.165
C 873.642 713.144 868.698 712.867 863.849 713.022
C 863.381 711.972 863.592 710.636 863.586 709.499
C 863.572 707.001 863.565 704.504 863.563 702.007
C 863.555 693.588 862.917 685.019 863.475 676.618 Z"
opacity="1" fill="rgb(60,60,61)" fill-rule="evenodd" />
<path d="
M 915.477 633.081
C 916.826 628.869 921.135 626.485 925.42 627.435
C 929.896 628.428 933.368 632.943 931.705 637.622
C 930.285 641.615 926.28 643.688 922.17 642.85
C 917.748 641.948 914.001 637.692 915.477 633.081 Z
M 917.401 632.553
C 916.67 634.729 917.113 637.594 918.68 639.303
C 921.649 642.543 928.296 642.666 929.827 637.884
C 930.713 635.117 930.165 632.033 927.878 630.099
C 924.533 627.27 918.871 628.176 917.401 632.553 Z"
opacity="1" fill="rgb(39,39,39)" fill-rule="evenodd" />
<path d="
M 920.887 632.011
C 922.262 630.036 925.066 630.552 926.767 631.834
C 927.507 633.057 927.164 637.534 926.379 638.659
C 922.043 641.278 919.728 635.413 920.887 632.011 Z
M 922.045 633.614
C 921.987 634.988 922.27 636.791 923.138 637.892
C 923.83 638.374 924.704 638.246 925.474 637.993
C 925.414 637.069 925.06 636.001 925.406 635.092
C 925.604 634.571 926.251 634.098 926.276 633.524
C 926.347 631.935 923.256 632.194 922.366 632.342
C 922.052 632.832 922.103 633.06 922.045 633.614 Z"
opacity="0.996" fill="rgb(32,41,41)" fill-rule="evenodd" />

</svg>